<?xml version="1.0" standalone="no"?>
<svg viewBox="0 0 200 200" xmlns="http://www.w3.org/2000/svg">
  <path fill="#FF9933" d="M35.3,-63.1C44.8,-55.7,50.9,-44.3,52.8,-33.1C54.7,-21.9,52.4,-11,52.5,0.1C52.7,11.2,55.4,22.4,52.2,31.2C49,40.1,39.9,46.7,30.2,51.4C20.5,56,10.3,58.6,-0.9,60.1C-12.1,61.7,-24.1,62.2,-34.9,58.2C-45.8,54.3,-55.4,45.9,-64.7,35.5C-73.9,25,-82.9,12.5,-85.7,-1.6C-88.4,-15.7,-85.1,-31.4,-74.5,-39.7C-64,-48,-46.4,-48.9,-32.8,-53.9C-19.2,-58.9,-9.6,-67.9,1.7,-70.8C12.9,-73.7,25.9,-70.4,35.3,-63.1Z" transform="translate(100 100)" />
</svg>
