<?xml version="1.0" standalone="no"?>
<svg viewBox="0 0 200 200" xmlns="http://www.w3.org/2000/svg">
  <path fill="#FF9933" d="M21.1,-29.7C33,-29.7,52.3,-35.5,58.9,-31.5C65.5,-27.5,59.5,-13.8,58.7,-0.5C57.8,12.8,62,25.5,60.5,38.3C58.9,51,51.6,63.8,40.5,64.5C29.5,65.3,14.7,54,5,45.4C-4.8,36.8,-9.6,30.8,-19.8,29.6C-30.1,28.4,-45.9,32,-56.4,27.9C-66.8,23.8,-71.8,11.9,-69.5,1.3C-67.3,-9.3,-57.8,-18.6,-47.8,-23.4C-37.8,-28.2,-27.2,-28.5,-19.1,-30.7C-11.1,-32.9,-5.5,-36.9,-0.5,-36.1C4.6,-35.3,9.2,-29.6,21.1,-29.7Z" transform="translate(100 100)" />
</svg>
