<?xml version="1.0" encoding="utf-8"?>
<!-- Generator: Adobe Illustrator 23.0.4, SVG Export Plug-In . SVG Version: 6.00 Build 0)  -->
<svg version="1.1" id="Layer_1" xmlns="http://www.w3.org/2000/svg" xmlns:xlink="http://www.w3.org/1999/xlink" x="0px" y="0px"
	 viewBox="0 0 200 200" style="enable-background:new 0 0 200 200;" xml:space="preserve">
<style type="text/css">
	.st0{fill:#1A203B;}
</style>
<path class="st0" d="M135.3,36.9c9.5,7.4,15.6,18.8,17.5,30c1.9,11.2-0.4,22.1-0.3,33.2c0.2,11.1,2.9,22.3-0.3,31.1
	c-3.2,8.9-12.3,15.5-22,20.2c-9.7,4.6-19.9,7.2-31.1,8.7c-11.2,1.6-23.2,2.1-34-1.9c-10.9-3.9-20.5-12.3-29.8-22.7
	c-9.2-10.5-18.2-23-21-37.1c-2.7-14.1,0.6-29.8,11.2-38.1C36,52,53.6,51.1,67.2,46.1s23.2-14,34.5-16.9
	C112.9,26.3,125.9,29.6,135.3,36.9z"/>
</svg>
