<?xml version="1.0" encoding="utf-8"?>
<!-- Generator: Adobe Illustrator 23.0.4, SVG Export Plug-In . SVG Version: 6.00 Build 0)  -->
<svg version="1.1" id="Layer_1" xmlns="http://www.w3.org/2000/svg" xmlns:xlink="http://www.w3.org/1999/xlink" x="0px" y="0px"
	 viewBox="0 0 565.2 430.3" style="enable-background:new 0 0 565.2 430.3;" xml:space="preserve">
<style type="text/css">
	.st0{opacity:0.24;fill:#FF8515;enable-background:new    ;}
	.st1{fill:url(#SVGID_1_);}
	.st2{fill:url(#SVGID_2_);}
	.st3{fill:#1972EC;}
	.st4{fill:url(#SVGID_3_);}
	.st5{opacity:0.24;fill:#1972EC;enable-background:new    ;}
	.st6{fill:url(#SVGID_4_);}
	.st7{fill:url(#SVGID_5_);}
	.st8{fill:url(#SVGID_6_);}
	.st9{fill:url(#SVGID_7_);}
	.st10{fill:url(#SVGID_8_);}
	.st11{fill:url(#SVGID_9_);}
	.st12{fill:url(#SVGID_10_);}
	.st13{fill:url(#SVGID_11_);}
	.st14{fill:url(#SVGID_12_);}
	.st15{fill:url(#SVGID_13_);}
	.st16{fill:url(#SVGID_14_);}
	.st17{fill:url(#SVGID_15_);}
	.st18{fill:url(#SVGID_16_);}
	.st19{fill:url(#SVGID_17_);}
</style>
<title>landing pages</title>
<path class="st0" d="M563.8,321.9c-3.8,23.9-17.2,45.8-35.8,61.2c-1.3,1.1-2.6,2.1-3.9,3.1c0,0-0.1,0-0.1,0.1
	c-12.9,9.8-28.1,16.3-44.1,18.8c-29.5,4.4-59.1-4.5-88.9-6c-53.3-2.8-104.6,17.8-157.1,27.2s-114.2,4.1-147.5-37.6
	c-0.2-0.2-0.4-0.5-0.6-0.7c-10.5-13.5-17.2-29.5-25.5-44.5c-1.4-2.6-2.9-5.2-4.5-7.7c-14.8-23.9-36.4-43.5-47.7-69.2
	c-11.2-26-10.8-55.4,1.1-81.1c10.6-22.5,29.3-40,47.6-56.9c1.2-1.1,2.3-2.2,3.5-3.2c15.6-14.5,31.3-29.1,47-43.6
	c8.6-8,17.2-16,26.2-23.6c11.9-10.2,24.2-19.7,37.6-27.6c32.8-19.3,63.9-17.1,99.5-23.2C311.8,0.2,354-5.9,394,10
	c23.4,9.2,43.4,25,63.1,40.5l9.6,7.6c18,14.2,36,28.4,53.7,42.9c3.9,3.2,7.8,6.4,11.4,9.9c5.6,5.4,10.7,11.3,13.9,18.4
	c3.9,8.4,4.8,17.8,5.8,27.1c3.8,38,7.7,76,11.6,114C564.7,287.5,566.5,304.9,563.8,321.9z"/>
<linearGradient id="SVGID_1_" gradientUnits="userSpaceOnUse" x1="100.9673" y1="269.7249" x2="99.5773" y2="336.6044" gradientTransform="matrix(1 0 0 -1 -3.36 394.2)">
	<stop  offset="0" style="stop-color:#FFFFFF;stop-opacity:0"/>
	<stop  offset="0.13" style="stop-color:#FFFFFF;stop-opacity:0.23"/>
	<stop  offset="0.23" style="stop-color:#FFFFFF;stop-opacity:0.41"/>
	<stop  offset="0.35" style="stop-color:#FFFFFF;stop-opacity:0.59"/>
	<stop  offset="0.48" style="stop-color:#FFFFFF;stop-opacity:0.74"/>
	<stop  offset="0.6" style="stop-color:#FFFFFF;stop-opacity:0.85"/>
	<stop  offset="0.72" style="stop-color:#FFFFFF;stop-opacity:0.93"/>
	<stop  offset="0.84" style="stop-color:#FFFFFF;stop-opacity:0.98"/>
	<stop  offset="0.95" style="stop-color:#FFFFFF"/>
</linearGradient>
<path class="st1" d="M133.5,58c-9,7.6-17.6,15.7-26.2,23.6c-15.7,14.5-31.3,29.1-47,43.6V72.7c0-8.1,6.5-14.7,14.6-14.7
	c0,0,0,0,0.1,0L133.5,58z"/>
<linearGradient id="SVGID_2_" gradientUnits="userSpaceOnUse" x1="638.5903" y1="-236.4998" x2="-187.0799" y2="727.7101" gradientTransform="matrix(1 0 0 -1 -3.36 394.2)">
	<stop  offset="0" style="stop-color:#010101;stop-opacity:0"/>
	<stop  offset="0.95" style="stop-color:#010101"/>
</linearGradient>
<path class="st2" d="M531.7,110.9v262.4c0,3.6-1.3,7.1-3.8,9.8c-1.1,1.2-2.4,2.3-3.9,3.1c0,0-0.1,0-0.1,0.1
	c-2.1,1.1-4.5,1.7-6.9,1.7H85.8c-10.5-13.5-17.2-29.5-25.5-44.5V125.2c15.6-14.5,31.3-29.1,47-43.6c8.6-8,17.2-16,26.2-23.6h333.1
	c18,14.2,36,28.4,53.7,42.9C524.2,104.2,528.1,107.4,531.7,110.9z"/>
<path class="st3" d="M62.1,46h442c8.1,0,14.7,6.6,14.7,14.7v300.6c0,8.1-6.6,14.7-14.7,14.7h-442c-8.1,0-14.7-6.6-14.7-14.7V60.7
	C47.4,52.6,54,46,62.1,46z"/>
<linearGradient id="SVGID_3_" gradientUnits="userSpaceOnUse" x1="291.6041" y1="-64.2699" x2="280.524" y2="467.6701" gradientTransform="matrix(1 0 0 -1 -3.36 394.2)">
	<stop  offset="0" style="stop-color:#FFFFFF;stop-opacity:0"/>
	<stop  offset="0.13" style="stop-color:#FFFFFF;stop-opacity:0.23"/>
	<stop  offset="0.23" style="stop-color:#FFFFFF;stop-opacity:0.41"/>
	<stop  offset="0.35" style="stop-color:#FFFFFF;stop-opacity:0.59"/>
	<stop  offset="0.48" style="stop-color:#FFFFFF;stop-opacity:0.74"/>
	<stop  offset="0.6" style="stop-color:#FFFFFF;stop-opacity:0.85"/>
	<stop  offset="0.72" style="stop-color:#FFFFFF;stop-opacity:0.93"/>
	<stop  offset="0.84" style="stop-color:#FFFFFF;stop-opacity:0.98"/>
	<stop  offset="0.95" style="stop-color:#FFFFFF"/>
</linearGradient>
<path class="st4" d="M518.8,60.7v300.6c0,8.1-6.6,14.7-14.7,14.7h-442c-8.1,0-14.7-6.5-14.7-14.6c0,0,0,0,0-0.1V60.7
	c0-8.1,6.5-14.7,14.6-14.7c0,0,0,0,0,0h442C512.2,46,518.8,52.6,518.8,60.7C518.8,60.7,518.8,60.7,518.8,60.7z"/>
<path class="st5" d="M518.8,60.7v19.8H47.4V60.7c0-8.1,6.5-14.7,14.6-14.7c0,0,0,0,0,0h442C512.2,46,518.8,52.6,518.8,60.7
	C518.8,60.7,518.8,60.7,518.8,60.7z"/>
<path class="st3" d="M518.8,60.7v19.8H47.4V60.7c0-8.1,6.5-14.7,14.6-14.7c0,0,0,0,0,0h442C512.2,46,518.8,52.6,518.8,60.7
	C518.8,60.7,518.8,60.7,518.8,60.7z"/>
<path class="st3" d="M518.8,60.7v19.8H47.4V60.7c0-8.1,6.5-14.7,14.6-14.7c0,0,0,0,0,0h442C512.2,46,518.8,52.6,518.8,60.7
	C518.8,60.7,518.8,60.7,518.8,60.7z"/>
<path class="st5" d="M88,140.9h109.6c6.1,0,11.1,5,11.1,11.1v0c0,6.1-5,11.1-11.1,11.1H88c-6.1,0-11.1-5-11.1-11.1v0
	C76.9,145.9,81.9,140.9,88,140.9z"/>
<path class="st3" d="M88,291.7h54.8c6.1,0,11.1,5,11.1,11.1v0c0,6.1-5,11.1-11.1,11.1H88c-6.1,0-11.1-5-11.1-11.1v0
	C76.9,296.7,81.9,291.7,88,291.7z"/>
<linearGradient id="SVGID_4_" gradientUnits="userSpaceOnUse" x1="115.5746" y1="140.1699" x2="114.0346" y2="43.1899" gradientTransform="matrix(1 0 0 -1 0 432)">
	<stop  offset="0" style="stop-color:#010101;stop-opacity:0"/>
	<stop  offset="0.95" style="stop-color:#010101"/>
</linearGradient>
<path class="st6" d="M88,291.7h54.8c6.1,0,11.1,5,11.1,11.1v0c0,6.1-5,11.1-11.1,11.1H88c-6.1,0-11.1-5-11.1-11.1v0
	C76.9,296.7,81.9,291.7,88,291.7z"/>
<path class="st5" d="M86.9,172.4h65.3c3.1,0,5.6,2.5,5.6,5.6v0c0,3.1-2.5,5.6-5.6,5.6H86.9c-3.1,0-5.6-2.5-5.6-5.6v0
	C81.2,175,83.8,172.4,86.9,172.4z"/>
<path class="st5" d="M517.8,80.6v288.2h-0.1c0,0,0,0-0.1,0c-0.1-0.1-0.3-0.2-0.4-0.2c-1.1-0.5-3.6-1.6-7.3-3.4
	c-0.4-0.2-0.8-0.4-1.3-0.6l-2.2-1c-0.5-0.2-1-0.5-1.6-0.7c-4.4-2.1-9.9-4.6-16.1-7.5c-1.9-0.9-3.9-1.8-5.9-2.8l-71.2-33.2
	c-1.4-0.6-2.9-1.3-4.3-2c-2.2-1-4.5-2.1-6.8-3.1c-2.1-1-4.2-1.9-6.3-2.9c-5.5-2.6-11.1-5.2-16.6-7.7c-1.7-0.8-3.5-1.6-5.1-2.4
	c-2.9-1.4-5.7-2.7-8.6-4c-1-0.5-2.1-1-3.1-1.5l-2.9-1.3c-1.9-0.9-3.7-1.7-5.5-2.6c-8.3-3.8-16.3-7.6-23.9-11.1
	c-1.7-0.8-3.4-1.5-5-2.3c-5-2.3-9.8-4.6-14.4-6.7l0,0c-2.3-1-4.4-2.1-6.6-3l-3.7-1.7l-2.3-1l-2.2-1l-3.5-1.6c-3.2-1.5-6.2-2.9-9-4.2
	c-0.8-0.4-1.6-0.8-2.4-1.1c-2.4-1.1-4.6-2.2-6.6-3.1c-0.6-0.3-1.2-0.6-1.8-0.8c-2.7-1.2-4.7-2.2-6.1-2.8c-0.3-0.1-0.5-0.3-0.8-0.4
	c-1.1-0.5-2.2-1-3.2-1.6c-1.9-1-3.7-2-5.4-3c-0.8-0.5-1.5-1-2.2-1.5c-0.2-0.1-0.3-0.2-0.4-0.3c-0.6-0.4-1.2-0.9-1.9-1.3
	c-1-0.7-1.9-1.4-2.9-2.2c-0.6-0.5-1.2-1-1.8-1.6c0,0-0.1,0-0.1-0.1c-0.6-0.6-1.2-1.1-1.8-1.7c0,0,0,0-0.1-0.1
	c-0.7-0.7-1.4-1.4-2-2.1s-1.3-1.4-1.8-2.2s-1.1-1.5-1.7-2.2s-1.1-1.5-1.5-2.3s-0.9-1.5-1.3-2.3c-1.2-2.3-2.2-4.7-3-7.2
	c-3.2-10.5-2.3-22,1.4-33.8c0.1-0.2,0.1-0.4,0.2-0.6c7.5-23.4,25.8-47.7,42.9-66.9c11.6-12.9,24-25.1,37.2-36.4L517.8,80.6z"/>
<path class="st5" d="M517.8,135.2v129.2c-0.1,0-0.2,0-0.3,0c-0.3,0.1-0.7,0.1-1,0.1c-16.3,1.3-32.4-3.8-48.7-3.6
	c-12.6,0.1-24.8,3.4-37.1,5.9c-32.6,6.8-66,9.2-99.2,7c-7.5-0.5-15-1.3-22.5-2.5l0,0c-15.5-2.5-30.6-7-43.9-15.3
	c-8-5-15-11.4-20.7-18.9c0,0,0,0-0.1-0.1c-0.9-1.2-1.7-2.4-2.5-3.6c-3.1-4.7-5.5-9.7-7.3-15c-0.4-1.1-0.7-2.2-1-3.3l0.9-30.2
	c0.1-0.2,0.1-0.4,0.2-0.6c7.5-23.4,25.8-47.7,42.9-66.9h4.8v23.2h8.3v-18.6h9.8v17.3h13.2v20.2h14.8V140h25.9v19.7h22.7v-31h11.6v10
	h9.7v21h9.7v-14h11.9v14h6.5v-23h11.3v-9.4h21.6v32.4h9.5v-51.1h21.6v51.1h9v-42.4H516v18L517.8,135.2z"/>
<path class="st3" d="M517.8,368.7c0,0-235.7-109.8-253.7-118.2c-18-8.4-27.4-19.3-31.2-31.6l284.3-51.5L517.8,368.7z"/>
<linearGradient id="SVGID_5_" gradientUnits="userSpaceOnUse" x1="339.0604" y1="290.0602" x2="646.6104" y2="-408.1598" gradientTransform="matrix(1 0 0 -1 -3.36 394.2)">
	<stop  offset="0" style="stop-color:#FFFFFF;stop-opacity:0"/>
	<stop  offset="0.13" style="stop-color:#FFFFFF;stop-opacity:0.23"/>
	<stop  offset="0.23" style="stop-color:#FFFFFF;stop-opacity:0.41"/>
	<stop  offset="0.35" style="stop-color:#FFFFFF;stop-opacity:0.59"/>
	<stop  offset="0.48" style="stop-color:#FFFFFF;stop-opacity:0.74"/>
	<stop  offset="0.6" style="stop-color:#FFFFFF;stop-opacity:0.85"/>
	<stop  offset="0.72" style="stop-color:#FFFFFF;stop-opacity:0.93"/>
	<stop  offset="0.84" style="stop-color:#FFFFFF;stop-opacity:0.98"/>
	<stop  offset="0.95" style="stop-color:#FFFFFF"/>
</linearGradient>
<path class="st7" d="M517.8,368.7c0,0-235.7-109.8-253.7-118.2c-18-8.4-27.4-19.3-31.2-31.6l284.3-51.5L517.8,368.7z"/>
<linearGradient id="SVGID_6_" gradientUnits="userSpaceOnUse" x1="377.1795" y1="185.6328" x2="1048.6195" y2="302.0028" gradientTransform="matrix(1 0 0 -1 0 432)">
	<stop  offset="0" style="stop-color:#010101;stop-opacity:0"/>
	<stop  offset="0.95" style="stop-color:#010101"/>
</linearGradient>
<polygon class="st8" points="327.8,246.8 516.2,207.1 516.2,230.2 361.1,264.3 "/>
<linearGradient id="SVGID_7_" gradientUnits="userSpaceOnUse" x1="125.8341" y1="263.3401" x2="127.2141" y2="152.97" gradientTransform="matrix(1 0 0 -1 0 432)">
	<stop  offset="0" style="stop-color:#FFFFFF;stop-opacity:0"/>
	<stop  offset="0.13" style="stop-color:#FFFFFF;stop-opacity:0.23"/>
	<stop  offset="0.23" style="stop-color:#FFFFFF;stop-opacity:0.41"/>
	<stop  offset="0.35" style="stop-color:#FFFFFF;stop-opacity:0.59"/>
	<stop  offset="0.48" style="stop-color:#FFFFFF;stop-opacity:0.74"/>
	<stop  offset="0.6" style="stop-color:#FFFFFF;stop-opacity:0.85"/>
	<stop  offset="0.72" style="stop-color:#FFFFFF;stop-opacity:0.93"/>
	<stop  offset="0.84" style="stop-color:#FFFFFF;stop-opacity:0.98"/>
	<stop  offset="0.95" style="stop-color:#FFFFFF"/>
</linearGradient>
<rect x="79.7" y="213.4" class="st9" width="93.6" height="17.9"/>
<linearGradient id="SVGID_8_" gradientUnits="userSpaceOnUse" x1="125.5454" y1="263.3401" x2="126.9254" y2="152.9701" gradientTransform="matrix(1 0 0 -1 0 432)">
	<stop  offset="0" style="stop-color:#FFFFFF;stop-opacity:0"/>
	<stop  offset="0.13" style="stop-color:#FFFFFF;stop-opacity:0.23"/>
	<stop  offset="0.23" style="stop-color:#FFFFFF;stop-opacity:0.41"/>
	<stop  offset="0.35" style="stop-color:#FFFFFF;stop-opacity:0.59"/>
	<stop  offset="0.48" style="stop-color:#FFFFFF;stop-opacity:0.74"/>
	<stop  offset="0.6" style="stop-color:#FFFFFF;stop-opacity:0.85"/>
	<stop  offset="0.72" style="stop-color:#FFFFFF;stop-opacity:0.93"/>
	<stop  offset="0.84" style="stop-color:#FFFFFF;stop-opacity:0.98"/>
	<stop  offset="0.95" style="stop-color:#FFFFFF"/>
</linearGradient>
<rect x="79.7" y="236.5" class="st10" width="93.6" height="17.9"/>
<ellipse class="st3" cx="390.7" cy="216.8" rx="3.5" ry="4.1"/>
<linearGradient id="SVGID_9_" gradientUnits="userSpaceOnUse" x1="398.7074" y1="221.2834" x2="387.8974" y2="213.0534" gradientTransform="matrix(1 0 0 -1 0 432)">
	<stop  offset="0" style="stop-color:#010101;stop-opacity:0"/>
	<stop  offset="0.95" style="stop-color:#010101"/>
</linearGradient>
<ellipse class="st11" cx="390.7" cy="216.8" rx="3.5" ry="4.1"/>
<linearGradient id="SVGID_10_" gradientUnits="userSpaceOnUse" x1="396.9359" y1="219.1554" x2="389.9259" y2="213.8254" gradientTransform="matrix(1 0 0 -1 0 432)">
	<stop  offset="0" style="stop-color:#010101;stop-opacity:0"/>
	<stop  offset="0.95" style="stop-color:#010101"/>
</linearGradient>
<ellipse class="st12" cx="391.8" cy="216.8" rx="2" ry="3.1"/>
<path class="st3" d="M395,211.2c0,0-1.7,3.6-0.1,5c0.7,0.6,1.5,1.2,2.3,1.7l-0.7,1l-5.4-2.1c0,0-0.4-0.8,0.1-1.2
	c0,0,0.9,0.2,1.2-0.4c0.4-1.3,0.6-2.5,0.7-3.8L395,211.2z"/>
<linearGradient id="SVGID_11_" gradientUnits="userSpaceOnUse" x1="395.8698" y1="178.842" x2="397.9198" y2="179.032" gradientTransform="matrix(1 0 0 -1 -3.36 394.2)">
	<stop  offset="0" style="stop-color:#010101;stop-opacity:0"/>
	<stop  offset="0.95" style="stop-color:#010101"/>
</linearGradient>
<path class="st13" d="M395,211.2c0,0-1.7,3.6-0.1,5c0.7,0.6,1.5,1.2,2.3,1.7l-0.7,1l-5.4-2.1c0,0-0.4-0.8,0.1-1.2
	c0,0,0.9,0.2,1.2-0.4c0.4-1.3,0.6-2.5,0.7-3.8L395,211.2z"/>
<g id="kbwNYr">
	<path class="st3" d="M420,179.5c7.9-1.2,18.1-3.1,25.6-4.2c2.3-0.3,7.6-0.6,9.9-0.8c1.7-0.1,6.6-12.6,7.3-14.2
		c4.2-9.3,8.4-18.5,12.6-27.7c0.1-0.3,0.3-0.6,0.4-0.9c1.2-3.4,0.5-3.9-3-3.8c-8.1,0.3-14,4.6-19,10.3c-8,9.1-15.6,18.5-23.4,27.8
		C430.2,166.2,420.3,178.9,420,179.5z"/>
	
		<linearGradient id="SVGID_12_" gradientUnits="userSpaceOnUse" x1="442.1656" y1="213.418" x2="455.6256" y2="250.888" gradientTransform="matrix(1 0 0 -1 -3.36 394.2)">
		<stop  offset="0" style="stop-color:#FFFFFF;stop-opacity:0"/>
		<stop  offset="0.13" style="stop-color:#FFFFFF;stop-opacity:0.23"/>
		<stop  offset="0.23" style="stop-color:#FFFFFF;stop-opacity:0.41"/>
		<stop  offset="0.35" style="stop-color:#FFFFFF;stop-opacity:0.59"/>
		<stop  offset="0.48" style="stop-color:#FFFFFF;stop-opacity:0.74"/>
		<stop  offset="0.6" style="stop-color:#FFFFFF;stop-opacity:0.85"/>
		<stop  offset="0.72" style="stop-color:#FFFFFF;stop-opacity:0.93"/>
		<stop  offset="0.84" style="stop-color:#FFFFFF;stop-opacity:0.98"/>
		<stop  offset="0.95" style="stop-color:#FFFFFF"/>
	</linearGradient>
	<path class="st14" d="M420,179.5c7.9-1.2,18.1-3.1,25.6-4.2c2.3-0.3,7.6-0.6,9.9-0.8c1.7-0.1,6.6-12.6,7.3-14.2
		c4.2-9.3,8.4-18.5,12.6-27.7c0.1-0.3,0.3-0.6,0.4-0.9c1.2-3.4,0.5-3.9-3-3.8c-8.1,0.3-14,4.6-19,10.3c-8,9.1-15.6,18.5-23.4,27.8
		C430.2,166.2,420.3,178.9,420,179.5z"/>
	<path class="st3" d="M451,203.9c6.3-1,12.2-1.9,18.1-2.9c15.5-2.7,31-5.9,45.4-12.5c4.3-2.1,8.4-4.6,12.2-7.5
		c3.8-2.9,5.2-6.8,4.3-11.9c-2-10.7-3.5-21.4-5.2-32.2c-0.6-3.9-2.7-5.3-6.5-4.2c-3.2,0.9-5.7,2.7-6.8,6c-1.8,5.4-3.6,10.8-5.5,16.1
		c-0.7,2-1.5,4-2.5,5.8c-1.1,2.1-3.3,3.5-5.6,3.8c-40.8,6.6-81.7,13.2-122.5,19.8c-10.4,1.7-19.8,5.2-27.4,12.8
		c-3.7,3.7-6.7,8-7.7,13.3c-0.7,3.7,0,4.9,3.8,5.1c5.5,0.4,11,0.4,16.5,0c14.6-1.4,29.1-3.2,43.6-5c2-0.3,4,0.1,5.7,1.3
		c20.6,13,41.3,25.9,62,38.9c6.7,4.2,13.8,4.3,21.2,2.6c1.3-0.3,1.7-1.2,1-2.3c-0.8-1.3-1.7-2.5-2.7-3.6
		c-13.2-13.8-26.4-27.6-39.5-41.4C452.3,205.5,451.8,204.9,451,203.9z"/>
	
		<linearGradient id="SVGID_13_" gradientUnits="userSpaceOnUse" x1="418.9627" y1="150.0389" x2="436.9128" y2="195.3089" gradientTransform="matrix(1 0 0 -1 -3.36 394.2)">
		<stop  offset="0" style="stop-color:#FFFFFF;stop-opacity:0"/>
		<stop  offset="0.13" style="stop-color:#FFFFFF;stop-opacity:0.23"/>
		<stop  offset="0.23" style="stop-color:#FFFFFF;stop-opacity:0.41"/>
		<stop  offset="0.35" style="stop-color:#FFFFFF;stop-opacity:0.59"/>
		<stop  offset="0.48" style="stop-color:#FFFFFF;stop-opacity:0.74"/>
		<stop  offset="0.6" style="stop-color:#FFFFFF;stop-opacity:0.85"/>
		<stop  offset="0.72" style="stop-color:#FFFFFF;stop-opacity:0.93"/>
		<stop  offset="0.84" style="stop-color:#FFFFFF;stop-opacity:0.98"/>
		<stop  offset="0.95" style="stop-color:#FFFFFF"/>
	</linearGradient>
	<path class="st15" d="M526.7,181.1c-3.8,2.9-7.9,5.5-12.2,7.5c-14.5,6.6-29.9,9.8-45.4,12.5c-5.9,1-11.8,1.9-18.1,2.9
		c0.8,0.9,1.3,1.5,1.9,2.1c13.2,13.8,26.4,27.6,39.5,41.4c1,1.1,1.9,2.3,2.7,3.5c0.7,1.1,0.2,2-1,2.3c-7.4,1.8-14.5,1.7-21.2-2.6
		c-20.6-13-41.3-25.9-62-38.9c-1.7-1.1-3.7-1.5-5.7-1.2c-14.5,1.8-29.1,3.5-43.6,4.9c-5.5,0.4-11,0.4-16.5,0
		c-3.8-0.2-4.5-1.4-3.8-5.1c1.1-5.3,4-9.6,7.7-13.3c7.6-7.6,17-11.1,27.4-12.8c40.9-6.6,81.7-13.2,122.5-19.9
		c2.4-0.2,4.5-1.7,5.6-3.8c1-1.9,1.9-3.8,2.6-5.8c1.9-5.4,3.6-10.7,5.5-16.1c1.1-3.2,3.6-5.1,6.8-6c3.8-1,5.9,0.4,6.5,4.2
		c1.5,9.5,2.9,19.1,4.6,28.6c0.2,1.2,0.4,2.4,0.6,3.6C532,174.2,530.6,178.2,526.7,181.1z"/>
</g>
<linearGradient id="SVGID_14_" gradientUnits="userSpaceOnUse" x1="439.9136" y1="213.7395" x2="281.4736" y2="-228.0205" gradientTransform="matrix(1 0 0 -1 -3.36 394.2)">
	<stop  offset="0" style="stop-color:#010101;stop-opacity:0"/>
	<stop  offset="0.95" style="stop-color:#010101"/>
</linearGradient>
<path class="st16" d="M494.1,253.2c-7.4,1.8-14.5,1.7-21.2-2.6c-20.6-13-41.3-25.9-62-38.9c-1.7-1.1-3.7-1.5-5.7-1.2
	c-14.5,1.8-29.1,3.5-43.6,4.9c-5.5,0.4-11,0.4-16.5,0c-3.8-0.2-4.5-1.4-3.8-5.1l50.9-6c7.8-0.9,15.8,0.4,22.9,3.9l2.8,1.4
	c0,0,58.5,39.4,66.7,40.2s10.4,1.1,10.4,1.1C495.8,252,495.3,253,494.1,253.2z"/>
<linearGradient id="SVGID_15_" gradientUnits="userSpaceOnUse" x1="490.6586" y1="220.0298" x2="511.1486" y2="85.3898" gradientTransform="matrix(1 0 0 -1 -3.36 394.2)">
	<stop  offset="0" style="stop-color:#010101;stop-opacity:0"/>
	<stop  offset="0.95" style="stop-color:#010101"/>
</linearGradient>
<path class="st17" d="M526.7,181.1c-3.8,2.9-7.9,5.5-12.2,7.5c-14.5,6.6-29.9,9.8-45.4,12.5c-5.9,1-11.8,1.9-18.1,2.9l-4.5-5.1
	c0,0,59.1-10.8,68.8-19.3c8.8-7.7,14.2-13.1,15.1-13.9c0.2,1.2,0.4,2.4,0.6,3.6C532,174.2,530.6,178.2,526.7,181.1z"/>
<ellipse class="st3" cx="396.8" cy="219" rx="3.5" ry="4.1"/>
<linearGradient id="SVGID_16_" gradientUnits="userSpaceOnUse" x1="404.791" y1="219.0488" x2="393.981" y2="210.8288" gradientTransform="matrix(1 0 0 -1 0 432)">
	<stop  offset="0" style="stop-color:#010101;stop-opacity:0"/>
	<stop  offset="0.95" style="stop-color:#010101"/>
</linearGradient>
<ellipse class="st18" cx="396.8" cy="219" rx="3.5" ry="4.1"/>
<linearGradient id="SVGID_17_" gradientUnits="userSpaceOnUse" x1="403.0081" y1="216.9325" x2="396.0081" y2="211.5925" gradientTransform="matrix(1 0 0 -1 0 432)">
	<stop  offset="0" style="stop-color:#010101;stop-opacity:0"/>
	<stop  offset="0.95" style="stop-color:#010101"/>
</linearGradient>
<ellipse class="st19" cx="397.8" cy="219" rx="2" ry="3.1"/>
</svg>
